<svg version="1.1" viewBox="0.0 0.0 600.0 371.0" fill="none" stroke="none" stroke-linecap="square" stroke-miterlimit="10" width="600" height="371" xmlns:xlink="http://www.w3.org/1999/xlink" xmlns="http://www.w3.org/2000/svg"><path fill="#ffffff" d="M0 0L600.0 0L600.0 371.0L0 371.0L0 0Z" fill-rule="nonzero"/><path fill="#34a853" d="M213.25546 42.85468C239.39699 26.957663 269.40433 18.55 300.0 18.55L300.0 185.5Z" fill-rule="nonzero"/><path fill="#fbbc04" d="M194.63986 315.005C152.56053 280.7709 129.7373 228.22661 133.4392 174.10693C137.14108 119.98725 166.90651 71.0401 213.25546 42.85468L300.0 185.5Z" fill-rule="nonzero"/><path fill="#ea4335" d="M209.3915 325.7227C204.28271 322.4215 199.35817 318.84363 194.63986 315.005L300.0 185.5Z" fill-rule="nonzero"/><path fill="#4285f4" d="M300.0 18.55C371.20828 18.55 434.5788 63.715496 457.81305 131.02663C481.04727 198.33775 459.03052 272.97696 402.98422 316.90225C346.93796 360.82755 269.19992 364.36945 209.3915 325.7227L300.0 185.5Z" fill-rule="nonzero"/><path fill="#1a1a1a" d="M19.471874 29.55L19.471874 20.95625L22.440624 20.95625Q23.440624 20.95625 23.971874 21.08125Q24.70625 21.253124 25.221874 21.690624Q25.909374 22.26875 26.2375 23.175Q26.58125 24.065624 26.58125 25.20625Q26.58125 26.190624 26.346874 26.940624Q26.128124 27.690624 25.76875 28.190624Q25.409374 28.690624 24.971874 28.971874Q24.55 29.253124 23.95625 29.409374Q23.3625 29.55 22.58125 29.55L19.471874 29.55ZM20.6125 28.534374L22.440624 28.534374Q23.3 28.534374 23.784374 28.378124Q24.26875 28.221874 24.55 27.925Q24.95625 27.534374 25.175 26.846874Q25.409374 26.159374 25.409374 25.190624Q25.409374 23.846874 24.95625 23.128124Q24.51875 22.39375 23.89375 22.14375Q23.425 21.971874 22.425 21.971874L20.6125 21.971874L20.6125 28.534374ZM32.425 29.55L32.425 28.628124Q31.690624 29.690624 30.440624 29.690624Q29.89375 29.690624 29.409374 29.4875Q28.940624 29.26875 28.70625 28.95625Q28.471874 28.628124 28.378124 28.159374Q28.315624 27.8625 28.315624 27.175L28.315624 23.33125L29.378124 23.33125L29.378124 26.784374Q29.378124 27.596874 29.440624 27.89375Q29.534374 28.3 29.846874 28.55Q30.175 28.784374 30.659374 28.784374Q31.128124 28.784374 31.534374 28.55Q31.95625 28.3 32.128124 27.878124Q32.315624 27.45625 32.315624 26.659374L32.315624 23.33125L33.3625 23.33125L33.3625 29.55L32.425 29.55ZM35.346874 31.940624L35.346874 23.33125L36.3 23.33125L36.3 24.128124Q36.64375 23.659374 37.065624 23.425Q37.503124 23.190624 38.1125 23.190624Q38.909374 23.190624 39.51875 23.596874Q40.128124 24.003124 40.425 24.753124Q40.7375 25.503124 40.7375 26.39375Q40.7375 27.346874 40.39375 28.1125Q40.065624 28.878124 39.409374 29.284374Q38.753124 29.690624 38.034374 29.690624Q37.503124 29.690624 37.08125 29.471874Q36.659374 29.2375 36.39375 28.909374L36.39375 31.940624L35.346874 31.940624ZM36.3 26.471874Q36.3 27.675 36.784374 28.253124Q37.26875 28.815624 37.95625 28.815624Q38.659374 28.815624 39.159374 28.221874Q39.659374 27.628124 39.659374 26.378124Q39.659374 25.190624 39.175 24.6125Q38.690624 24.01875 38.003124 24.01875Q37.33125 24.01875 36.815624 24.64375Q36.3 25.26875 36.3 26.471874ZM42.315624 29.55L42.315624 20.95625L43.378124 20.95625L43.378124 29.55L42.315624 29.55ZM45.346874 22.175L45.346874 20.95625L46.409374 20.95625L46.409374 22.175L45.346874 22.175ZM45.346874 29.55L45.346874 23.33125L46.409374 23.33125L46.409374 29.55L45.346874 29.55ZM52.409374 27.26875L53.440624 27.409374Q53.26875 28.471874 52.565624 29.08125Q51.8625 29.690624 50.846874 29.690624Q49.565624 29.690624 48.784374 28.8625Q48.01875 28.01875 48.01875 26.45625Q48.01875 25.45625 48.346874 24.70625Q48.690624 23.940624 49.3625 23.565624Q50.05 23.190624 50.8625 23.190624Q51.8625 23.190624 52.503124 23.70625Q53.159374 24.20625 53.346874 25.159374L52.315624 25.315624Q52.175 24.690624 51.8 24.378124Q51.425 24.05 50.89375 24.05Q50.096874 24.05 49.596874 24.628124Q49.096874 25.190624 49.096874 26.425Q49.096874 27.690624 49.58125 28.253124Q50.065624 28.815624 50.83125 28.815624Q51.45625 28.815624 51.8625 28.440624Q52.284374 28.065624 52.409374 27.26875ZM58.409374 28.784374Q57.815624 29.284374 57.26875 29.4875Q56.7375 29.690624 56.1125 29.690624Q55.08125 29.690624 54.534374 29.190624Q53.9875 28.690624 53.9875 27.909374Q53.9875 27.45625 54.190624 27.08125Q54.39375 26.690624 54.7375 26.471874Q55.08125 26.2375 55.503124 26.128124Q55.8 26.034374 56.440624 25.95625Q57.70625 25.815624 58.315624 25.596874Q58.315624 25.378124 58.315624 25.33125Q58.315624 24.675 58.01875 24.409374Q57.6125 24.065624 56.815624 24.065624Q56.08125 24.065624 55.721874 24.33125Q55.3625 24.58125 55.190624 25.2375L54.159374 25.096874Q54.3 24.440624 54.628124 24.034374Q54.95625 23.628124 55.565624 23.409374Q56.175 23.190624 56.971874 23.190624Q57.76875 23.190624 58.26875 23.378124Q58.76875 23.565624 59.003124 23.846874Q59.2375 24.128124 59.33125 24.565624Q59.378124 24.83125 59.378124 25.534374L59.378124 26.940624Q59.378124 28.409374 59.440624 28.8Q59.51875 29.190624 59.721874 29.55L58.6125 29.55Q58.45625 29.221874 58.409374 28.784374ZM58.315624 26.425Q57.7375 26.659374 56.596874 26.83125Q55.940624 26.925 55.675 27.05Q55.409374 27.159374 55.253124 27.378124Q55.1125 27.596874 55.1125 27.878124Q55.1125 28.3 55.425 28.58125Q55.753124 28.8625 56.3625 28.8625Q56.971874 28.8625 57.440624 28.596874Q57.925 28.33125 58.14375 27.8625Q58.315624 27.503124 58.315624 26.815624L58.315624 26.425ZM65.37813 29.55L65.37813 28.76875Q64.78438 29.690624 63.64375 29.690624Q62.89375 29.690624 62.26875 29.284374Q61.64375 28.8625 61.3 28.128124Q60.95625 27.39375 60.95625 26.440624Q60.95625 25.51875 61.26875 24.753124Q61.58125 23.9875 62.20625 23.596874Q62.83125 23.190624 63.596874 23.190624Q64.15938 23.190624 64.59688 23.425Q65.03438 23.659374 65.31563 24.034374L65.31563 20.95625L66.3625 20.95625L66.3625 29.55L65.37813 29.55ZM62.05 26.440624Q62.05 27.64375 62.55 28.2375Q63.05 28.815624 63.7375 28.815624Q64.425 28.815624 64.90938 28.253124Q65.39375 27.690624 65.39375 26.534374Q65.39375 25.253124 64.89375 24.659374Q64.40938 24.065624 63.690624 24.065624Q62.9875 24.065624 62.51875 24.64375Q62.05 25.20625 62.05 26.440624ZM67.95625 26.440624Q67.95625 24.70625 68.90938 23.878124Q69.70625 23.190624 70.8625 23.190624Q72.14375 23.190624 72.95625 24.034374Q73.78438 24.8625 73.78438 26.346874Q73.78438 27.55 73.425 28.2375Q73.06563 28.925 72.3625 29.315624Q71.675 29.690624 70.8625 29.690624Q69.56563 29.690624 68.75313 28.8625Q67.95625 28.01875 67.95625 26.440624ZM69.03438 26.440624Q69.03438 27.628124 69.55 28.221874Q70.08125 28.815624 70.8625 28.815624Q71.65938 28.815624 72.175 28.221874Q72.69063 27.628124 72.69063 26.409374Q72.69063 25.253124 72.15938 24.659374Q71.64375 24.065624 70.8625 24.065624Q70.08125 24.065624 69.55 24.659374Q69.03438 25.2375 69.03438 26.440624ZM74.925 27.690624L75.95625 27.534374Q76.05 28.159374 76.44063 28.4875Q76.84688 28.815624 77.58125 28.815624Q78.3 28.815624 78.64375 28.534374Q79.00313 28.2375 79.00313 27.83125Q79.00313 27.471874 78.69063 27.26875Q78.47188 27.128124 77.6125 26.909374Q76.45625 26.6125 76.00313 26.409374Q75.56563 26.190624 75.33125 25.815624Q75.09688 25.440624 75.09688 24.971874Q75.09688 24.565624 75.28438 24.20625Q75.47188 23.846874 75.8 23.6125Q76.05 23.440624 76.47188 23.315624Q76.89375 23.190624 77.39375 23.190624Q78.1125 23.190624 78.65938 23.409374Q79.22188 23.6125 79.4875 23.971874Q79.75313 24.33125 79.84688 24.925L78.81563 25.065624Q78.75313 24.596874 78.40938 24.33125Q78.08125 24.05 77.45625 24.05Q76.7375 24.05 76.425 24.3Q76.1125 24.534374 76.1125 24.8625Q76.1125 25.065624 76.2375 25.221874Q76.37813 25.39375 76.64375 25.503124Q76.8 25.565624 77.58125 25.76875Q78.70625 26.08125 79.14375 26.26875Q79.58125 26.45625 79.83125 26.815624Q80.08125 27.175 80.08125 27.721874Q80.08125 28.253124 79.76875 28.721874Q79.47188 29.175 78.89375 29.440624Q78.31563 29.690624 77.58125 29.690624Q76.3625 29.690624 75.72188 29.190624Q75.09688 28.675 74.925 27.690624Z" fill-rule="nonzero"/><path fill="#9e9e9e" d="M20.675 41.89375Q20.01875 41.64375 19.690624 41.20625Q19.378124 40.753124 19.378124 40.14375Q19.378124 39.20625 20.05 38.565624Q20.7375 37.925 21.846874 37.925Q22.971874 37.925 23.659374 38.58125Q24.346874 39.2375 24.346874 40.175Q24.346874 40.76875 24.034374 41.20625Q23.721874 41.64375 23.08125 41.89375Q23.878124 42.14375 24.284374 42.721874Q24.690624 43.3 24.690624 44.096874Q24.690624 45.190624 23.909374 45.940624Q23.14375 46.690624 21.8625 46.690624Q20.596874 46.690624 19.815624 45.940624Q19.034374 45.190624 19.034374 44.065624Q19.034374 43.221874 19.45625 42.659374Q19.89375 42.096874 20.675 41.89375ZM20.45625 40.096874Q20.45625 40.70625 20.846874 41.096874Q21.253124 41.4875 21.878124 41.4875Q22.4875 41.4875 22.878124 41.1125Q23.26875 40.721874 23.26875 40.159374Q23.26875 39.58125 22.8625 39.190624Q22.45625 38.784374 21.8625 38.784374Q21.253124 38.784374 20.846874 39.175Q20.45625 39.565624 20.45625 40.096874ZM20.128124 44.065624Q20.128124 44.51875 20.33125 44.940624Q20.55 45.3625 20.971874 45.596874Q21.39375 45.83125 21.878124 45.83125Q22.628124 45.83125 23.1125 45.346874Q23.6125 44.8625 23.6125 44.1125Q23.6125 43.346874 23.1125 42.846874Q22.6125 42.346874 21.846874 42.346874Q21.096874 42.346874 20.6125 42.846874Q20.128124 43.33125 20.128124 44.065624ZM26.64375 46.55L26.64375 45.346874L27.846874 45.346874L27.846874 46.55L26.64375 46.55ZM29.1125 39.08125L29.1125 38.065624L34.675 38.065624L34.675 38.89375Q33.8625 39.76875 33.05 41.221874Q32.253124 42.659374 31.815624 44.190624Q31.4875 45.26875 31.409374 46.55L30.315624 46.55Q30.33125 45.534374 30.70625 44.096874Q31.096874 42.659374 31.8 41.33125Q32.51875 40.003124 33.33125 39.08125L29.1125 39.08125ZM36.253124 40.01875Q36.253124 39.096874 36.70625 38.45625Q37.175 37.815624 38.05 37.815624Q38.8625 37.815624 39.39375 38.39375Q39.925 38.971874 39.925 40.08125Q39.925 41.175 39.378124 41.76875Q38.846874 42.346874 38.065624 42.346874Q37.284374 42.346874 36.76875 41.76875Q36.253124 41.190624 36.253124 40.01875ZM38.08125 38.534374Q37.690624 38.534374 37.425 38.878124Q37.175 39.221874 37.175 40.128124Q37.175 40.95625 37.425 41.3Q37.690624 41.628124 38.08125 41.628124Q38.4875 41.628124 38.7375 41.284374Q39.003124 40.940624 39.003124 40.05Q39.003124 39.20625 38.7375 38.878124Q38.471874 38.534374 38.08125 38.534374ZM38.08125 46.8625L42.784374 37.815624L43.64375 37.815624L38.95625 46.8625L38.08125 46.8625ZM41.8 44.534374Q41.8 43.6125 42.253124 42.971874Q42.721874 42.33125 43.6125 42.33125Q44.425 42.33125 44.95625 42.909374Q45.4875 43.471874 45.4875 44.596874Q45.4875 45.690624 44.940624 46.284374Q44.409374 46.8625 43.6125 46.8625Q42.846874 46.8625 42.315624 46.284374Q41.8 45.70625 41.8 44.534374ZM43.64375 43.05Q43.2375 43.05 42.971874 43.39375Q42.721874 43.7375 42.721874 44.64375Q42.721874 45.45625 42.9875 45.8Q43.253124 46.14375 43.64375 46.14375Q44.034374 46.14375 44.3 45.8Q44.565624 45.45625 44.565624 44.55Q44.565624 43.721874 44.3 43.39375Q44.034374 43.05 43.64375 43.05Z" fill-rule="nonzero"/><path stroke="#757575" stroke-width="1.0" stroke-linecap="butt" d="M18.55 34.05L127.05 34.05L257.20956 32.77891" fill-rule="nonzero"/><path fill="#9e9e9e" d="M259.20956 32.77891C259.20956 31.674341 258.31412 30.778912 257.20956 30.778912C256.10498 30.778912 255.20956 31.674341 255.20956 32.77891C255.20956 33.88348 256.10498 34.77891 257.20956 34.77891C258.31412 34.77891 259.20956 33.88348 259.20956 32.77891" fill-rule="nonzero"/><path fill="#1a1a1a" d="M19.534374 170.17659L19.534374 161.58284L25.33125 161.58284L25.33125 162.59846L20.675 162.59846L20.675 165.25471L24.70625 165.25471L24.70625 166.27034L20.675 166.27034L20.675 170.17659L19.534374 170.17659ZM25.95625 167.06721Q25.95625 165.33284 26.909374 164.50471Q27.70625 163.81721 28.8625 163.81721Q30.14375 163.81721 30.95625 164.66096Q31.784374 165.48909 31.784374 166.97346Q31.784374 168.17659 31.425 168.86409Q31.065624 169.55159 30.3625 169.94221Q29.675 170.31721 28.8625 170.31721Q27.565624 170.31721 26.753124 169.48909Q25.95625 168.64534 25.95625 167.06721ZM27.034374 167.06721Q27.034374 168.25471 27.55 168.84846Q28.08125 169.44221 28.8625 169.44221Q29.659374 169.44221 30.175 168.84846Q30.690624 168.25471 30.690624 167.03596Q30.690624 165.87971 30.159374 165.28596Q29.64375 164.69221 28.8625 164.69221Q28.08125 164.69221 27.55 165.28596Q27.034374 165.86409 27.034374 167.06721ZM33.33125 170.17659L33.33125 163.95784L34.284374 163.95784L34.284374 164.89534Q34.64375 164.23909 34.940624 164.03596Q35.253124 163.81721 35.628124 163.81721Q36.159374 163.81721 36.70625 164.14534L36.346874 165.12971Q35.95625 164.89534 35.58125 164.89534Q35.221874 164.89534 34.940624 165.11409Q34.675 165.31721 34.565624 165.69221Q34.378124 166.25471 34.378124 166.91096L34.378124 170.17659L33.33125 170.17659ZM41.409374 169.41096Q40.815624 169.91096 40.26875 170.11409Q39.7375 170.31721 39.1125 170.31721Q38.08125 170.31721 37.534374 169.81721Q36.9875 169.31721 36.9875 168.53596Q36.9875 168.08284 37.190624 167.70784Q37.39375 167.31721 37.7375 167.09846Q38.08125 166.86409 38.503124 166.75471Q38.8 166.66096 39.440624 166.58284Q40.70625 166.44221 41.315624 166.22346Q41.315624 166.00471 41.315624 165.95784Q41.315624 165.30159 41.01875 165.03596Q40.6125 164.69221 39.815624 164.69221Q39.08125 164.69221 38.721874 164.95784Q38.3625 165.20784 38.190624 165.86409L37.159374 165.72346Q37.3 165.06721 37.628124 164.66096Q37.95625 164.25471 38.565624 164.03596Q39.175 163.81721 39.971874 163.81721Q40.76875 163.81721 41.26875 164.00471Q41.76875 164.19221 42.003124 164.47346Q42.2375 164.75471 42.33125 165.19221Q42.378124 165.45784 42.378124 166.16096L42.378124 167.56721Q42.378124 169.03596 42.440624 169.42659Q42.51875 169.81721 42.721874 170.17659L41.6125 170.17659Q41.45625 169.84846 41.409374 169.41096ZM41.315624 167.05159Q40.7375 167.28596 39.596874 167.45784Q38.940624 167.55159 38.675 167.67659Q38.409374 167.78596 38.253124 168.00471Q38.1125 168.22346 38.1125 168.50471Q38.1125 168.92659 38.425 169.20784Q38.753124 169.48909 39.3625 169.48909Q39.971874 169.48909 40.440624 169.22346Q40.925 168.95784 41.14375 168.48909Q41.315624 168.12971 41.315624 167.44221L41.315624 167.05159ZM51.378124 170.17659L51.378124 169.39534Q50.784374 170.31721 49.64375 170.31721Q48.89375 170.31721 48.26875 169.91096Q47.64375 169.48909 47.3 168.75471Q46.95625 168.02034 46.95625 167.06721Q46.95625 166.14534 47.26875 165.37971Q47.58125 164.61409 48.20625 164.22346Q48.83125 163.81721 49.596874 163.81721Q50.159374 163.81721 50.596874 164.05159Q51.034374 164.28596 51.315624 164.66096L51.315624 161.58284L52.3625 161.58284L52.3625 170.17659L51.378124 170.17659ZM48.05 167.06721Q48.05 168.27034 48.55 168.86409Q49.05 169.44221 49.7375 169.44221Q50.425 169.44221 50.909374 168.87971Q51.39375 168.31721 51.39375 167.16096Q51.39375 165.87971 50.89375 165.28596Q50.409374 164.69221 49.690624 164.69221Q48.9875 164.69221 48.51875 165.27034Q48.05 165.83284 48.05 167.06721ZM58.596874 168.17659L59.690624 168.30159Q59.440624 169.25471 58.7375 169.78596Q58.034374 170.31721 56.95625 170.31721Q55.596874 170.31721 54.784374 169.47346Q53.9875 168.62971 53.9875 167.11409Q53.9875 165.55159 54.8 164.69221Q55.6125 163.81721 56.89375 163.81721Q58.14375 163.81721 58.925 164.66096Q59.721874 165.50471 59.721874 167.05159Q59.721874 167.14534 59.721874 167.33284L55.08125 167.33284Q55.14375 168.36409 55.659374 168.91096Q56.175 169.44221 56.95625 169.44221Q57.534374 169.44221 57.940624 169.14534Q58.3625 168.83284 58.596874 168.17659ZM55.14375 166.47346L58.6125 166.47346Q58.55 165.67659 58.221874 165.28596Q57.70625 164.67659 56.909374 164.67659Q56.175 164.67659 55.675 165.16096Q55.190624 165.64534 55.14375 166.47346ZM64.50313 170.17659L64.50313 161.58284L70.70625 161.58284L70.70625 162.59846L65.64375 162.59846L65.64375 165.22346L70.39375 165.22346L70.39375 166.23909L65.64375 166.23909L65.64375 169.16096L70.90938 169.16096L70.90938 170.17659L64.50313 170.17659ZM71.925 168.31721L72.95625 168.16096Q73.05 168.78596 73.44063 169.11409Q73.84688 169.44221 74.58125 169.44221Q75.3 169.44221 75.64375 169.16096Q76.00313 168.86409 76.00313 168.45784Q76.00313 168.09846 75.69063 167.89534Q75.47188 167.75471 74.6125 167.53596Q73.45625 167.23909 73.00313 167.03596Q72.56563 166.81721 72.33125 166.44221Q72.09688 166.06721 72.09688 165.59846Q72.09688 165.19221 72.28438 164.83284Q72.47188 164.47346 72.8 164.23909Q73.05 164.06721 73.47188 163.94221Q73.89375 163.81721 74.39375 163.81721Q75.1125 163.81721 75.65938 164.03596Q76.22188 164.23909 76.4875 164.59846Q76.75313 164.95784 76.84688 165.55159L75.81563 165.69221Q75.75313 165.22346 75.40938 164.95784Q75.08125 164.67659 74.45625 164.67659Q73.7375 164.67659 73.425 164.92659Q73.1125 165.16096 73.1125 165.48909Q73.1125 165.69221 73.2375 165.84846Q73.37813 166.02034 73.64375 166.12971Q73.8 166.19221 74.58125 166.39534Q75.70625 166.70784 76.14375 166.89534Q76.58125 167.08284 76.83125 167.44221Q77.08125 167.80159 77.08125 168.34846Q77.08125 168.87971 76.76875 169.34846Q76.47188 169.80159 75.89375 170.06721Q75.31563 170.31721 74.58125 170.31721Q73.3625 170.31721 72.72188 169.81721Q72.09688 169.30159 71.925 168.31721ZM83.40938 167.89534L84.44063 168.03596Q84.26875 169.09846 83.56563 169.70784Q82.8625 170.31721 81.84688 170.31721Q80.56563 170.31721 79.78438 169.48909Q79.01875 168.64534 79.01875 167.08284Q79.01875 166.08284 79.34688 165.33284Q79.69063 164.56721 80.3625 164.19221Q81.05 163.81721 81.8625 163.81721Q82.8625 163.81721 83.50313 164.33284Q84.15938 164.83284 84.34688 165.78596L83.31563 165.94221Q83.175 165.31721 82.8 165.00471Q82.425 164.67659 81.89375 164.67659Q81.09688 164.67659 80.59688 165.25471Q80.09688 165.81721 80.09688 167.05159Q80.09688 168.31721 80.58125 168.87971Q81.06563 169.44221 81.83125 169.44221Q82.45625 169.44221 82.8625 169.06721Q83.28438 168.69221 83.40938 167.89534ZM84.95625 167.06721Q84.95625 165.33284 85.90938 164.50471Q86.70625 163.81721 87.8625 163.81721Q89.14375 163.81721 89.95625 164.66096Q90.78438 165.48909 90.78438 166.97346Q90.78438 168.17659 90.425 168.86409Q90.06563 169.55159 89.3625 169.94221Q88.675 170.31721 87.8625 170.31721Q86.56563 170.31721 85.75313 169.48909Q84.95625 168.64534 84.95625 167.06721ZM86.03438 167.06721Q86.03438 168.25471 86.55 168.84846Q87.08125 169.44221 87.8625 169.44221Q88.65938 169.44221 89.175 168.84846Q89.69063 168.25471 89.69063 167.03596Q89.69063 165.87971 89.15938 165.28596Q88.64375 164.69221 87.8625 164.69221Q87.08125 164.69221 86.55 165.28596Q86.03438 165.86409 86.03438 167.06721ZM92.34688 172.56721L92.34688 163.95784L93.3 163.95784L93.3 164.75471Q93.64375 164.28596 94.06563 164.05159Q94.50313 163.81721 95.1125 163.81721Q95.90938 163.81721 96.51875 164.22346Q97.12813 164.62971 97.425 165.37971Q97.7375 166.12971 97.7375 167.02034Q97.7375 167.97346 97.39375 168.73909Q97.06563 169.50471 96.40938 169.91096Q95.75313 170.31721 95.03438 170.31721Q94.50313 170.31721 94.08125 170.09846Q93.65938 169.86409 93.39375 169.53596L93.39375 172.56721L92.34688 172.56721ZM93.3 167.09846Q93.3 168.30159 93.78438 168.87971Q94.26875 169.44221 94.95625 169.44221Q95.65938 169.44221 96.15938 168.84846Q96.65938 168.25471 96.65938 167.00471Q96.65938 165.81721 96.175 165.23909Q95.69063 164.64534 95.00313 164.64534Q94.33125 164.64534 93.81563 165.27034Q93.3 165.89534 93.3 167.09846ZM98.95625 167.06721Q98.95625 165.33284 99.90938 164.50471Q100.70625 163.81721 101.8625 163.81721Q103.14375 163.81721 103.95625 164.66096Q104.78438 165.48909 104.78438 166.97346Q104.78438 168.17659 104.425 168.86409Q104.06563 169.55159 103.3625 169.94221Q102.675 170.31721 101.8625 170.31721Q100.56563 170.31721 99.75313 169.48909Q98.95625 168.64534 98.95625 167.06721ZM100.03438 167.06721Q100.03438 168.25471 100.55 168.84846Q101.08125 169.44221 101.8625 169.44221Q102.65938 169.44221 103.175 168.84846Q103.69063 168.25471 103.69063 167.03596Q103.69063 165.87971 103.15938 165.28596Q102.64375 164.69221 101.8625 164.69221Q101.08125 164.69221 100.55 165.28596Q100.03438 165.86409 100.03438 167.06721Z" fill-rule="nonzero"/><path fill="#9e9e9e" d="M19.05 184.91096L20.1125 184.77034Q20.284374 185.66096 20.721874 186.06721Q21.159374 186.45784 21.784374 186.45784Q22.534374 186.45784 23.05 185.94221Q23.565624 185.42659 23.565624 184.66096Q23.565624 183.94221 23.08125 183.47346Q22.6125 182.98909 21.878124 182.98909Q21.58125 182.98909 21.128124 183.11409L21.253124 182.17659Q21.3625 182.19221 21.425 182.19221Q22.096874 182.19221 22.628124 181.84846Q23.175 181.48909 23.175 180.75471Q23.175 180.17659 22.784374 179.80159Q22.39375 179.41096 21.76875 179.41096Q21.159374 179.41096 20.7375 179.80159Q20.33125 180.19221 20.221874 180.95784L19.159374 180.77034Q19.346874 179.72346 20.034374 179.14534Q20.721874 178.55159 21.7375 178.55159Q22.440624 178.55159 23.034374 178.86409Q23.628124 179.16096 23.940624 179.67659Q24.253124 180.19221 24.253124 180.78596Q24.253124 181.33284 23.95625 181.80159Q23.659374 182.25471 23.08125 182.52034Q23.83125 182.69221 24.253124 183.25471Q24.675 183.80159 24.675 184.64534Q24.675 185.77034 23.846874 186.55159Q23.034374 187.33284 21.784374 187.33284Q20.659374 187.33284 19.909374 186.66096Q19.159374 185.97346 19.05 184.91096ZM26.05 182.94221Q26.05 181.41096 26.3625 180.48909Q26.675 179.55159 27.284374 179.05159Q27.909374 178.55159 28.846874 178.55159Q29.534374 178.55159 30.05 178.83284Q30.58125 179.11409 30.925 179.64534Q31.26875 180.16096 31.45625 180.91096Q31.64375 181.66096 31.64375 182.94221Q31.64375 184.45784 31.33125 185.37971Q31.034374 186.30159 30.409374 186.81721Q29.8 187.31721 28.846874 187.31721Q27.6125 187.31721 26.89375 186.42659Q26.05 185.36409 26.05 182.94221ZM27.128124 182.94221Q27.128124 185.05159 27.628124 185.75471Q28.128124 186.45784 28.846874 186.45784Q29.58125 186.45784 30.065624 185.75471Q30.565624 185.05159 30.565624 182.94221Q30.565624 180.81721 30.065624 180.12971Q29.58125 179.42659 28.83125 179.42659Q28.1125 179.42659 27.675 180.03596Q27.128124 180.81721 27.128124 182.94221ZM33.64375 187.17659L33.64375 185.97346L34.846874 185.97346L34.846874 187.17659L33.64375 187.17659ZM39.425 187.17659L39.425 185.11409L35.70625 185.11409L35.70625 184.14534L39.628124 178.58284L40.4875 178.58284L40.4875 184.14534L41.64375 184.14534L41.64375 185.11409L40.4875 185.11409L40.4875 187.17659L39.425 187.17659ZM39.425 184.14534L39.425 180.28596L36.7375 184.14534L39.425 184.14534ZM43.253124 180.64534Q43.253124 179.72346 43.70625 179.08284Q44.175 178.44221 45.05 178.44221Q45.8625 178.44221 46.39375 179.02034Q46.925 179.59846 46.925 180.70784Q46.925 181.80159 46.378124 182.39534Q45.846874 182.97346 45.065624 182.97346Q44.284374 182.97346 43.76875 182.39534Q43.253124 181.81721 43.253124 180.64534ZM45.08125 179.16096Q44.690624 179.16096 44.425 179.50471Q44.175 179.84846 44.175 180.75471Q44.175 181.58284 44.425 181.92659Q44.690624 182.25471 45.08125 182.25471Q45.4875 182.25471 45.7375 181.91096Q46.003124 181.56721 46.003124 180.67659Q46.003124 179.83284 45.7375 179.50471Q45.471874 179.16096 45.08125 179.16096ZM45.08125 187.48909L49.784374 178.44221L50.64375 178.44221L45.95625 187.48909L45.08125 187.48909ZM48.8 185.16096Q48.8 184.23909 49.253124 183.59846Q49.721874 182.95784 50.6125 182.95784Q51.425 182.95784 51.95625 183.53596Q52.4875 184.09846 52.4875 185.22346Q52.4875 186.31721 51.940624 186.91096Q51.409374 187.48909 50.6125 187.48909Q49.846874 187.48909 49.315624 186.91096Q48.8 186.33284 48.8 185.16096ZM50.64375 183.67659Q50.2375 183.67659 49.971874 184.02034Q49.721874 184.36409 49.721874 185.27034Q49.721874 186.08284 49.9875 186.42659Q50.253124 186.77034 50.64375 186.77034Q51.034374 186.77034 51.3 186.42659Q51.565624 186.08284 51.565624 185.17659Q51.565624 184.34846 51.3 184.02034Q51.034374 183.67659 50.64375 183.67659Z" fill-rule="nonzero"/><path stroke="#757575" stroke-width="1.0" stroke-linecap="butt" d="M18.55 174.67659L127.05 174.67659L141.76724 174.67659" fill-rule="nonzero"/><path fill="#9e9e9e" d="M143.76724 174.67659C143.76724 173.572 142.87181 172.67659 141.76724 172.67659C140.66267 172.67659 139.76724 173.572 139.76724 174.67659C139.76724 175.78116 140.66267 176.67659 141.76724 176.67659C142.87181 176.67659 143.76724 175.78116 143.76724 174.67659" fill-rule="nonzero"/><path fill="#1a1a1a" d="M19.675 309.3121L19.675 300.71835L20.8 300.71835L20.8 309.3121L19.675 309.3121ZM22.346874 309.3121L22.346874 303.09335L23.284374 303.09335L23.284374 303.96835Q23.971874 302.95273 25.26875 302.95273Q25.83125 302.95273 26.3 303.15585Q26.784374 303.35898 27.01875 303.6871Q27.253124 304.01523 27.346874 304.45273Q27.39375 304.7496 27.39375 305.48398L27.39375 309.3121L26.346874 309.3121L26.346874 305.53085Q26.346874 304.8746 26.221874 304.5621Q26.096874 304.2496 25.784374 304.0621Q25.471874 303.85898 25.05 303.85898Q24.378124 303.85898 23.878124 304.29648Q23.39375 304.71835 23.39375 305.90585L23.39375 309.3121L22.346874 309.3121ZM33.409374 308.54648Q32.815624 309.04648 32.26875 309.2496Q31.7375 309.45273 31.1125 309.45273Q30.08125 309.45273 29.534374 308.95273Q28.9875 308.45273 28.9875 307.67148Q28.9875 307.21835 29.190624 306.84335Q29.39375 306.45273 29.7375 306.23398Q30.08125 305.9996 30.503124 305.89023Q30.8 305.79648 31.440624 305.71835Q32.70625 305.57773 33.315624 305.35898Q33.315624 305.14023 33.315624 305.09335Q33.315624 304.4371 33.01875 304.17148Q32.6125 303.82773 31.815624 303.82773Q31.08125 303.82773 30.721874 304.09335Q30.3625 304.34335 30.190624 304.9996L29.159374 304.85898Q29.3 304.20273 29.628124 303.79648Q29.95625 303.39023 30.565624 303.17148Q31.175 302.95273 31.971874 302.95273Q32.76875 302.95273 33.26875 303.14023Q33.76875 303.32773 34.003124 303.60898Q34.2375 303.89023 34.33125 304.32773Q34.378124 304.59335 34.378124 305.29648L34.378124 306.70273Q34.378124 308.17148 34.440624 308.5621Q34.51875 308.95273 34.721874 309.3121L33.6125 309.3121Q33.45625 308.98398 33.409374 308.54648ZM33.315624 306.1871Q32.7375 306.42148 31.596874 306.59335Q30.940624 306.6871 30.675 306.8121Q30.409374 306.92148 30.253124 307.14023Q30.1125 307.35898 30.1125 307.64023Q30.1125 308.0621 30.425 308.34335Q30.753124 308.6246 31.3625 308.6246Q31.971874 308.6246 32.440624 308.35898Q32.925 308.09335 33.14375 307.6246Q33.315624 307.26523 33.315624 306.57773L33.315624 306.1871ZM40.409374 307.03085L41.440624 307.17148Q41.26875 308.23398 40.565624 308.84335Q39.8625 309.45273 38.846874 309.45273Q37.565624 309.45273 36.784374 308.6246Q36.01875 307.78085 36.01875 306.21835Q36.01875 305.21835 36.346874 304.46835Q36.690624 303.70273 37.3625 303.32773Q38.05 302.95273 38.8625 302.95273Q39.8625 302.95273 40.503124 303.46835Q41.159374 303.96835 41.346874 304.92148L40.315624 305.07773Q40.175 304.45273 39.8 304.14023Q39.425 303.8121 38.89375 303.8121Q38.096874 303.8121 37.596874 304.39023Q37.096874 304.95273 37.096874 306.1871Q37.096874 307.45273 37.58125 308.01523Q38.065624 308.57773 38.83125 308.57773Q39.45625 308.57773 39.8625 308.20273Q40.284374 307.82773 40.409374 307.03085ZM46.596874 307.3121L47.690624 307.4371Q47.440624 308.39023 46.7375 308.92148Q46.034374 309.45273 44.95625 309.45273Q43.596874 309.45273 42.784374 308.60898Q41.9875 307.76523 41.9875 306.2496Q41.9875 304.6871 42.8 303.82773Q43.6125 302.95273 44.89375 302.95273Q46.14375 302.95273 46.925 303.79648Q47.721874 304.64023 47.721874 306.1871Q47.721874 306.28085 47.721874 306.46835L43.08125 306.46835Q43.14375 307.4996 43.659374 308.04648Q44.175 308.57773 44.95625 308.57773Q45.534374 308.57773 45.940624 308.28085Q46.3625 307.96835 46.596874 307.3121ZM43.14375 305.60898L46.6125 305.60898Q46.55 304.8121 46.221874 304.42148Q45.70625 303.8121 44.909374 303.8121Q44.175 303.8121 43.675 304.29648Q43.190624 304.78085 43.14375 305.60898ZM48.925 307.45273L49.95625 307.29648Q50.05 307.92148 50.440624 308.2496Q50.846874 308.57773 51.58125 308.57773Q52.3 308.57773 52.64375 308.29648Q53.003124 307.9996 53.003124 307.59335Q53.003124 307.23398 52.690624 307.03085Q52.471874 306.89023 51.6125 306.67148Q50.45625 306.3746 50.003124 306.17148Q49.565624 305.95273 49.33125 305.57773Q49.096874 305.20273 49.096874 304.73398Q49.096874 304.32773 49.284374 303.96835Q49.471874 303.60898 49.8 303.3746Q50.05 303.20273 50.471874 303.07773Q50.89375 302.95273 51.39375 302.95273Q52.1125 302.95273 52.659374 303.17148Q53.221874 303.3746 53.4875 303.73398Q53.753124 304.09335 53.846874 304.6871L52.815624 304.82773Q52.753124 304.35898 52.409374 304.09335Q52.08125 303.8121 51.45625 303.8121Q50.7375 303.8121 50.425 304.0621Q50.1125 304.29648 50.1125 304.6246Q50.1125 304.82773 50.2375 304.98398Q50.378124 305.15585 50.64375 305.26523Q50.8 305.32773 51.58125 305.53085Q52.70625 305.84335 53.14375 306.03085Q53.58125 306.21835 53.83125 306.57773Q54.08125 306.9371 54.08125 307.48398Q54.08125 308.01523 53.76875 308.48398Q53.471874 308.9371 52.89375 309.20273Q52.315624 309.45273 51.58125 309.45273Q50.3625 309.45273 49.721874 308.95273Q49.096874 308.4371 48.925 307.45273ZM55.925 307.45273L56.95625 307.29648Q57.05 307.92148 57.440624 308.2496Q57.846874 308.57773 58.58125 308.57773Q59.3 308.57773 59.64375 308.29648Q60.003124 307.9996 60.003124 307.59335Q60.003124 307.23398 59.690624 307.03085Q59.471874 306.89023 58.6125 306.67148Q57.45625 306.3746 57.003124 306.17148Q56.565624 305.95273 56.33125 305.57773Q56.096874 305.20273 56.096874 304.73398Q56.096874 304.32773 56.284374 303.96835Q56.471874 303.60898 56.8 303.3746Q57.05 303.20273 57.471874 303.07773Q57.89375 302.95273 58.39375 302.95273Q59.1125 302.95273 59.659374 303.17148Q60.221874 303.3746 60.4875 303.73398Q60.753124 304.09335 60.846874 304.6871L59.815624 304.82773Q59.753124 304.35898 59.409374 304.09335Q59.08125 303.8121 58.45625 303.8121Q57.7375 303.8121 57.425 304.0621Q57.1125 304.29648 57.1125 304.6246Q57.1125 304.82773 57.2375 304.98398Q57.378124 305.15585 57.64375 305.26523Q57.8 305.32773 58.58125 305.53085Q59.70625 305.84335 60.14375 306.03085Q60.58125 306.21835 60.83125 306.57773Q61.08125 306.9371 61.08125 307.48398Q61.08125 308.01523 60.76875 308.48398Q60.471874 308.9371 59.89375 309.20273Q59.315624 309.45273 58.58125 309.45273Q57.3625 309.45273 56.721874 308.95273Q56.096874 308.4371 55.925 307.45273ZM63.70625 309.3121L63.70625 303.09335L64.76875 303.09335L64.76875 309.3121L63.70625 309.3121ZM63.659374 302.3121L64.44063 300.67148L65.83125 300.67148L64.53438 302.3121L63.659374 302.3121ZM68.06563 309.3121L65.70625 303.09335L66.81563 303.09335L68.15938 306.8121Q68.3625 307.42148 68.55 308.0621Q68.69063 307.57773 68.94063 306.89023L70.33125 303.09335L71.40938 303.09335L69.05 309.3121L68.06563 309.3121ZM75.59688 307.3121L76.69063 307.4371Q76.44063 308.39023 75.7375 308.92148Q75.03438 309.45273 73.95625 309.45273Q72.59688 309.45273 71.78438 308.60898Q70.9875 307.76523 70.9875 306.2496Q70.9875 304.6871 71.8 303.82773Q72.6125 302.95273 73.89375 302.95273Q75.14375 302.95273 75.925 303.79648Q76.72188 304.64023 76.72188 306.1871Q76.72188 306.28085 76.72188 306.46835L72.08125 306.46835Q72.14375 307.4996 72.65938 308.04648Q73.175 308.57773 73.95625 308.57773Q74.53438 308.57773 74.94063 308.28085Q75.3625 307.96835 75.59688 307.3121ZM72.14375 305.60898L75.6125 305.60898Q75.55 304.8121 75.22188 304.42148Q74.70625 303.8121 73.90938 303.8121Q73.175 303.8121 72.675 304.29648Q72.19063 304.78085 72.14375 305.60898ZM78.34688 301.9371L78.34688 300.71835L79.40938 300.71835L79.40938 301.9371L78.34688 301.9371ZM78.34688 309.3121L78.34688 303.09335L79.40938 303.09335L79.40938 309.3121L78.34688 309.3121ZM80.925 307.45273L81.95625 307.29648Q82.05 307.92148 82.44063 308.2496Q82.84688 308.57773 83.58125 308.57773Q84.3 308.57773 84.64375 308.29648Q85.00313 307.9996 85.00313 307.59335Q85.00313 307.23398 84.69063 307.03085Q84.47188 306.89023 83.6125 306.67148Q82.45625 306.3746 82.00313 306.17148Q81.56563 305.95273 81.33125 305.57773Q81.09688 305.20273 81.09688 304.73398Q81.09688 304.32773 81.28438 303.96835Q81.47188 303.60898 81.8 303.3746Q82.05 303.20273 82.47188 303.07773Q82.89375 302.95273 83.39375 302.95273Q84.1125 302.95273 84.65938 303.17148Q85.22188 303.3746 85.4875 303.73398Q85.75313 304.09335 85.84688 304.6871L84.81563 304.82773Q84.75313 304.35898 84.40938 304.09335Q84.08125 303.8121 83.45625 303.8121Q82.7375 303.8121 82.425 304.0621Q82.1125 304.29648 82.1125 304.6246Q82.1125 304.82773 82.2375 304.98398Q82.37813 305.15585 82.64375 305.26523Q82.8 305.32773 83.58125 305.53085Q84.70625 305.84335 85.14375 306.03085Q85.58125 306.21835 85.83125 306.57773Q86.08125 306.9371 86.08125 307.48398Q86.08125 308.01523 85.76875 308.48398Q85.47188 308.9371 84.89375 309.20273Q84.31563 309.45273 83.58125 309.45273Q82.3625 309.45273 81.72188 308.95273Q81.09688 308.4371 80.925 307.45273Z" fill-rule="nonzero"/><path fill="#9e9e9e" d="M23.01875 326.3121L21.971874 326.3121L21.971874 319.59335Q21.58125 319.95273 20.95625 320.32773Q20.346874 320.6871 19.8625 320.85898L19.8625 319.84335Q20.7375 319.42148 21.39375 318.84335Q22.065624 318.2496 22.346874 317.6871L23.01875 317.6871L23.01875 326.3121ZM26.64375 326.3121L26.64375 325.10898L27.846874 325.10898L27.846874 326.3121L26.64375 326.3121ZM29.1125 318.84335L29.1125 317.82773L34.675 317.82773L34.675 318.65585Q33.8625 319.53085 33.05 320.98398Q32.253124 322.42148 31.815624 323.95273Q31.4875 325.03085 31.409374 326.3121L30.315624 326.3121Q30.33125 325.29648 30.70625 323.85898Q31.096874 322.42148 31.8 321.09335Q32.51875 319.76523 33.33125 318.84335L29.1125 318.84335ZM36.253124 319.78085Q36.253124 318.85898 36.70625 318.21835Q37.175 317.57773 38.05 317.57773Q38.8625 317.57773 39.39375 318.15585Q39.925 318.73398 39.925 319.84335Q39.925 320.9371 39.378124 321.53085Q38.846874 322.10898 38.065624 322.10898Q37.284374 322.10898 36.76875 321.53085Q36.253124 320.95273 36.253124 319.78085ZM38.08125 318.29648Q37.690624 318.29648 37.425 318.64023Q37.175 318.98398 37.175 319.89023Q37.175 320.71835 37.425 321.0621Q37.690624 321.39023 38.08125 321.39023Q38.4875 321.39023 38.7375 321.04648Q39.003124 320.70273 39.003124 319.8121Q39.003124 318.96835 38.7375 318.64023Q38.471874 318.29648 38.08125 318.29648ZM38.08125 326.6246L42.784374 317.57773L43.64375 317.57773L38.95625 326.6246L38.08125 326.6246ZM41.8 324.29648Q41.8 323.3746 42.253124 322.73398Q42.721874 322.09335 43.6125 322.09335Q44.425 322.09335 44.95625 322.67148Q45.4875 323.23398 45.4875 324.35898Q45.4875 325.45273 44.940624 326.04648Q44.409374 326.6246 43.6125 326.6246Q42.846874 326.6246 42.315624 326.04648Q41.8 325.46835 41.8 324.29648ZM43.64375 322.8121Q43.2375 322.8121 42.971874 323.15585Q42.721874 323.4996 42.721874 324.40585Q42.721874 325.21835 42.9875 325.5621Q43.253124 325.90585 43.64375 325.90585Q44.034374 325.90585 44.3 325.5621Q44.565624 325.21835 44.565624 324.3121Q44.565624 323.48398 44.3 323.15585Q44.034374 322.8121 43.64375 322.8121Z" fill-rule="nonzero"/><path stroke="#757575" stroke-width="1.0" stroke-linecap="butt" d="M18.55 313.8121L127.05 313.8121L206.77579 313.8121" fill-rule="nonzero"/><path fill="#9e9e9e" d="M208.77579 313.8121C208.77579 312.70755 207.88036 311.8121 206.77579 311.8121C205.67122 311.8121 204.77579 312.70755 204.77579 313.8121C204.77579 314.9167 205.67122 315.8121 206.77579 315.8121C207.88036 315.8121 208.77579 314.9167 208.77579 313.8121" fill-rule="nonzero"/><path fill="#1a1a1a" d="M557.5594 225.87242L557.5594 218.2943L554.73126 218.2943L554.73126 217.27867L561.54376 217.27867L561.54376 218.2943L558.7 218.2943L558.7 225.87242L557.5594 225.87242ZM561.85626 222.76305Q561.85626 221.02867 562.8094 220.20055Q563.60626 219.51305 564.7625 219.51305Q566.04376 219.51305 566.85626 220.3568Q567.6844 221.18492 567.6844 222.6693Q567.6844 223.87242 567.325 224.55992Q566.96564 225.24742 566.2625 225.63805Q565.575 226.01305 564.7625 226.01305Q563.46564 226.01305 562.65314 225.18492Q561.85626 224.34117 561.85626 222.76305ZM562.9344 222.76305Q562.9344 223.95055 563.45 224.5443Q563.98126 225.13805 564.7625 225.13805Q565.5594 225.13805 566.075 224.5443Q566.59064 223.95055 566.59064 222.7318Q566.59064 221.57555 566.0594 220.9818Q565.54376 220.38805 564.7625 220.38805Q563.98126 220.38805 563.45 220.9818Q562.9344 221.55992 562.9344 222.76305ZM571.54376 224.93492L571.7 225.8568Q571.2469 225.95055 570.90314 225.95055Q570.325 225.95055 570.0125 225.77867Q569.7 225.59117 569.5594 225.2943Q569.4344 224.99742 569.4344 224.0443L569.4344 220.46617L568.66876 220.46617L568.66876 219.65367L569.4344 219.65367L569.4344 218.1068L570.48126 217.4818L570.48126 219.65367L571.54376 219.65367L571.54376 220.46617L570.48126 220.46617L570.48126 224.1068Q570.48126 224.55992 570.52814 224.68492Q570.59064 224.80992 570.71564 224.88805Q570.84064 224.96617 571.075 224.96617Q571.2625 224.96617 571.54376 224.93492ZM576.3094 225.1068Q575.71564 225.6068 575.16876 225.80992Q574.6375 226.01305 574.0125 226.01305Q572.98126 226.01305 572.4344 225.51305Q571.8875 225.01305 571.8875 224.2318Q571.8875 223.77867 572.09064 223.40367Q572.29376 223.01305 572.6375 222.7943Q572.98126 222.55992 573.40314 222.45055Q573.7 222.3568 574.34064 222.27867Q575.60626 222.13805 576.21564 221.9193Q576.21564 221.70055 576.21564 221.65367Q576.21564 220.99742 575.91876 220.7318Q575.5125 220.38805 574.71564 220.38805Q573.98126 220.38805 573.6219 220.65367Q573.2625 220.90367 573.09064 221.55992L572.0594 221.4193Q572.2 220.76305 572.52814 220.3568Q572.85626 219.95055 573.46564 219.7318Q574.075 219.51305 574.8719 219.51305Q575.66876 219.51305 576.16876 219.70055Q576.66876 219.88805 576.90314 220.1693Q577.1375 220.45055 577.23126 220.88805Q577.27814 221.15367 577.27814 221.8568L577.27814 223.26305Q577.27814 224.7318 577.34064 225.12242Q577.41876 225.51305 577.6219 225.87242L576.5125 225.87242Q576.35626 225.5443 576.3094 225.1068ZM576.21564 222.74742Q575.6375 222.9818 574.4969 223.15367Q573.84064 223.24742 573.575 223.37242Q573.3094 223.4818 573.15314 223.70055Q573.0125 223.9193 573.0125 224.20055Q573.0125 224.62242 573.325 224.90367Q573.65314 225.18492 574.2625 225.18492Q574.8719 225.18492 575.34064 224.9193Q575.825 224.65367 576.04376 224.18492Q576.21564 223.82555 576.21564 223.13805L576.21564 222.74742ZM579.21564 225.87242L579.21564 217.27867L580.27814 217.27867L580.27814 225.87242L579.21564 225.87242Z" fill-rule="nonzero"/><path fill="#9e9e9e" d="M546.95 240.62242L548.0594 240.52867Q548.1844 241.34117 548.6219 241.74742Q549.075 242.15367 549.71564 242.15367Q550.46564 242.15367 550.9969 241.57555Q551.52814 240.99742 551.52814 240.05992Q551.52814 239.15367 551.0125 238.63805Q550.5125 238.1068 549.6844 238.1068Q549.1844 238.1068 548.7625 238.34117Q548.35626 238.57555 548.1219 238.93492L547.1375 238.80992L547.96564 234.40367L552.2469 234.40367L552.2469 235.40367L548.8094 235.40367L548.35626 237.71617Q549.1219 237.1693 549.96564 237.1693Q551.09064 237.1693 551.85626 237.95055Q552.6375 238.7318 552.6375 239.96617Q552.6375 241.12242 551.96564 241.9818Q551.1375 243.01305 549.71564 243.01305Q548.54376 243.01305 547.79376 242.3568Q547.0594 241.70055 546.95 240.62242ZM554.10626 240.88805L555.1219 240.7943Q555.2469 241.51305 555.60626 241.84117Q555.98126 242.15367 556.54376 242.15367Q557.02814 242.15367 557.3875 241.93492Q557.7625 241.70055 557.9969 241.34117Q558.23126 240.96617 558.3875 240.34117Q558.54376 239.70055 558.54376 239.0443Q558.54376 238.96617 558.54376 238.82555Q558.23126 239.32555 557.6844 239.65367Q557.1375 239.96617 556.4969 239.96617Q555.41876 239.96617 554.6844 239.20055Q553.95 238.4193 553.95 237.15367Q553.95 235.84117 554.71564 235.0443Q555.4969 234.24742 556.65314 234.24742Q557.48126 234.24742 558.16876 234.70055Q558.8719 235.15367 559.23126 235.99742Q559.59064 236.82555 559.59064 238.40367Q559.59064 240.0443 559.23126 241.02867Q558.8875 241.99742 558.16876 242.51305Q557.46564 243.01305 556.52814 243.01305Q555.5125 243.01305 554.8719 242.46617Q554.23126 241.90367 554.10626 240.88805ZM558.41876 237.09117Q558.41876 236.18492 557.9344 235.65367Q557.46564 235.12242 556.77814 235.12242Q556.075 235.12242 555.54376 235.70055Q555.02814 236.26305 555.02814 237.18492Q555.02814 237.99742 555.52814 238.51305Q556.02814 239.02867 556.7469 239.02867Q557.48126 239.02867 557.95 238.51305Q558.41876 237.99742 558.41876 237.09117ZM561.54376 242.87242L561.54376 241.6693L562.7469 241.6693L562.7469 242.87242L561.54376 242.87242ZM567.91876 242.87242L566.8719 242.87242L566.8719 236.15367Q566.48126 236.51305 565.85626 236.88805Q565.2469 237.24742 564.7625 237.4193L564.7625 236.40367Q565.6375 235.9818 566.29376 235.40367Q566.96564 234.80992 567.2469 234.24742L567.91876 234.24742L567.91876 242.87242ZM571.15314 236.34117Q571.15314 235.4193 571.60626 234.77867Q572.075 234.13805 572.95 234.13805Q573.7625 234.13805 574.29376 234.71617Q574.825 235.2943 574.825 236.40367Q574.825 237.49742 574.27814 238.09117Q573.7469 238.6693 572.96564 238.6693Q572.1844 238.6693 571.66876 238.09117Q571.15314 237.51305 571.15314 236.34117ZM572.98126 234.8568Q572.59064 234.8568 572.325 235.20055Q572.075 235.5443 572.075 236.45055Q572.075 237.27867 572.325 237.62242Q572.59064 237.95055 572.98126 237.95055Q573.3875 237.95055 573.6375 237.6068Q573.90314 237.26305 573.90314 236.37242Q573.90314 235.52867 573.6375 235.20055Q573.3719 234.8568 572.98126 234.8568ZM572.98126 243.18492L577.6844 234.13805L578.54376 234.13805L573.85626 243.18492L572.98126 243.18492ZM576.7 240.8568Q576.7 239.93492 577.15314 239.2943Q577.6219 238.65367 578.5125 238.65367Q579.325 238.65367 579.85626 239.2318Q580.3875 239.7943 580.3875 240.9193Q580.3875 242.01305 579.84064 242.6068Q579.3094 243.18492 578.5125 243.18492Q577.7469 243.18492 577.21564 242.6068Q576.7 242.02867 576.7 240.8568ZM578.54376 239.37242Q578.1375 239.37242 577.8719 239.71617Q577.6219 240.05992 577.6219 240.96617Q577.6219 241.77867 577.8875 242.12242Q578.15314 242.46617 578.54376 242.46617Q578.9344 242.46617 579.2 242.12242Q579.46564 241.77867 579.46564 240.87242Q579.46564 240.0443 579.2 239.71617Q578.9344 239.37242 578.54376 239.37242Z" fill-rule="nonzero"/><path stroke="#757575" stroke-width="1.0" stroke-linecap="butt" d="M581.45 230.37242L472.95 230.37242L452.12238 230.37242" fill-rule="nonzero"/><path fill="#9e9e9e" d="M454.12238 230.37242C454.12238 229.26785 453.22696 228.37242 452.12238 228.37242C451.01782 228.37242 450.12238 229.26785 450.12238 230.37242C450.12238 231.47699 451.01782 232.37242 452.12238 232.37242C453.22696 232.37242 454.12238 231.47699 454.12238 230.37242" fill-rule="nonzero"/></svg>